# Faceted 80 x 40 x 16 block with a radius-8 Z-axis through-hole.
# Hole center: (15, 0, 0); 48 segments intentionally expose mesh faceting.
o hole_block
v 23 0 8
v 40 0 8
v 23 0 -8
v 40 0 -8
v 22.9315589 1.04420954 8
v 40 3.29131244 8
v 22.9315589 1.04420954 -8
v 40 3.29131244 -8
v 22.7274066 2.07055236 8
v 40 6.69872981 8
v 22.7274066 2.07055236 -8
v 40 6.69872981 -8
v 22.3910363 3.06146746 8
v 40 10.3553391 8
v 22.3910363 3.06146746 -8
v 40 10.3553391 -8
v 21.9282032 4 8
v 40 14.4337567 8
v 21.9282032 4 -8
v 40 14.4337567 -8
v 21.3468267 4.87009143 8
v 40 19.1831747 8
v 21.3468267 4.87009143 -8
v 40 19.1831747 -8
v 20.6568542 5.65685425 8
v 35 20 8
v 20.6568542 5.65685425 -8
v 35 20 -8
v 19.8700914 6.34682672 8
v 30.3465398 20 8
v 19.8700914 6.34682672 -8
v 30.3465398 20 -8
v 19 6.92820323 8
v 26.5470054 20 8
v 19 6.92820323 -8
v 26.5470054 20 -8
v 18.0614675 7.39103626 8
v 23.2842712 20 8
v 18.0614675 7.39103626 -8
v 23.2842712 20 -8
v 17.0705524 7.72740661 8
v 20.3589838 20 8
v 17.0705524 7.72740661 -8
v 20.3589838 20 -8
v 16.0442095 7.93155889 8
v 17.63305 20 8
v 16.0442095 7.93155889 -8
v 17.63305 20 -8
v 15 8 8
v 15 20 8
v 15 8 -8
v 15 20 -8
v 13.9557905 7.93155889 8
v 12.36695 20 8
v 13.9557905 7.93155889 -8
v 12.36695 20 -8
v 12.9294476 7.72740661 8
v 9.64101615 20 8
v 12.9294476 7.72740661 -8
v 9.64101615 20 -8
v 11.9385325 7.39103626 8
v 6.71572875 20 8
v 11.9385325 7.39103626 -8
v 6.71572875 20 -8
v 11 6.92820323 8
v 3.45299462 20 8
v 11 6.92820323 -8
v 3.45299462 20 -8
v 10.1299086 6.34682672 8
v -0.34653976 20 8
v 10.1299086 6.34682672 -8
v -0.34653976 20 -8
v 9.34314575 5.65685425 8
v -5 20 8
v 9.34314575 5.65685425 -8
v -5 20 -8
v 8.65317328 4.87009143 8
v -11.0645075 20 8
v 8.65317328 4.87009143 -8
v -11.0645075 20 -8
v 8.07179677 4 8
v -19.6410162 20 8
v 8.07179677 4 -8
v -19.6410162 20 -8
v 7.60896374 3.06146746 8
v -33.2842712 20 8
v 7.60896374 3.06146746 -8
v -33.2842712 20 -8
v 7.27259339 2.07055236 8
v -40 14.7372056 8
v 7.27259339 2.07055236 -8
v -40 14.7372056 -8
v 7.06844111 1.04420954 8
v -40 7.24088737 8
v 7.06844111 1.04420954 -8
v -40 7.24088737 -8
v 7 9.79717439e-16 8
v -40 6.7355574e-15 8
v 7 9.79717439e-16 -8
v -40 6.7355574e-15 -8
v 7.06844111 -1.04420954 8
v -40 -7.24088737 8
v 7.06844111 -1.04420954 -8
v -40 -7.24088737 -8
v 7.27259339 -2.07055236 8
v -40 -14.7372056 8
v 7.27259339 -2.07055236 -8
v -40 -14.7372056 -8
v 7.60896374 -3.06146746 8
v -33.2842712 -20 8
v 7.60896374 -3.06146746 -8
v -33.2842712 -20 -8
v 8.07179677 -4 8
v -19.6410162 -20 8
v 8.07179677 -4 -8
v -19.6410162 -20 -8
v 8.65317328 -4.87009143 8
v -11.0645075 -20 8
v 8.65317328 -4.87009143 -8
v -11.0645075 -20 -8
v 9.34314575 -5.65685425 8
v -5 -20 8
v 9.34314575 -5.65685425 -8
v -5 -20 -8
v 10.1299086 -6.34682672 8
v -0.34653976 -20 8
v 10.1299086 -6.34682672 -8
v -0.34653976 -20 -8
v 11 -6.92820323 8
v 3.45299462 -20 8
v 11 -6.92820323 -8
v 3.45299462 -20 -8
v 11.9385325 -7.39103626 8
v 6.71572875 -20 8
v 11.9385325 -7.39103626 -8
v 6.71572875 -20 -8
v 12.9294476 -7.72740661 8
v 9.64101615 -20 8
v 12.9294476 -7.72740661 -8
v 9.64101615 -20 -8
v 13.9557905 -7.93155889 8
v 12.36695 -20 8
v 13.9557905 -7.93155889 -8
v 12.36695 -20 -8
v 15 -8 8
v 15 -20 8
v 15 -8 -8
v 15 -20 -8
v 16.0442095 -7.93155889 8
v 17.63305 -20 8
v 16.0442095 -7.93155889 -8
v 17.63305 -20 -8
v 17.0705524 -7.72740661 8
v 20.3589838 -20 8
v 17.0705524 -7.72740661 -8
v 20.3589838 -20 -8
v 18.0614675 -7.39103626 8
v 23.2842712 -20 8
v 18.0614675 -7.39103626 -8
v 23.2842712 -20 -8
v 19 -6.92820323 8
v 26.5470054 -20 8
v 19 -6.92820323 -8
v 26.5470054 -20 -8
v 19.8700914 -6.34682672 8
v 30.3465398 -20 8
v 19.8700914 -6.34682672 -8
v 30.3465398 -20 -8
v 20.6568542 -5.65685425 8
v 35 -20 8
v 20.6568542 -5.65685425 -8
v 35 -20 -8
v 21.3468267 -4.87009143 8
v 40 -19.1831747 8
v 21.3468267 -4.87009143 -8
v 40 -19.1831747 -8
v 21.9282032 -4 8
v 40 -14.4337567 8
v 21.9282032 -4 -8
v 40 -14.4337567 -8
v 22.3910363 -3.06146746 8
v 40 -10.3553391 8
v 22.3910363 -3.06146746 -8
v 40 -10.3553391 -8
v 22.7274066 -2.07055236 8
v 40 -6.69872981 8
v 22.7274066 -2.07055236 -8
v 40 -6.69872981 -8
v 22.9315589 -1.04420954 8
v 40 -3.29131244 8
v 22.9315589 -1.04420954 -8
v 40 -3.29131244 -8
f 1 2 6 5
f 3 7 8 4
f 1 5 7 3
f 2 4 8 6
f 5 6 10 9
f 7 11 12 8
f 5 9 11 7
f 6 8 12 10
f 9 10 14 13
f 11 15 16 12
f 9 13 15 11
f 10 12 16 14
f 13 14 18 17
f 15 19 20 16
f 13 17 19 15
f 14 16 20 18
f 17 18 22 21
f 19 23 24 20
f 17 21 23 19
f 18 20 24 22
f 21 22 26 25
f 23 27 28 24
f 21 25 27 23
f 22 24 28 26
f 25 26 30 29
f 27 31 32 28
f 25 29 31 27
f 26 28 32 30
f 29 30 34 33
f 31 35 36 32
f 29 33 35 31
f 30 32 36 34
f 33 34 38 37
f 35 39 40 36
f 33 37 39 35
f 34 36 40 38
f 37 38 42 41
f 39 43 44 40
f 37 41 43 39
f 38 40 44 42
f 41 42 46 45
f 43 47 48 44
f 41 45 47 43
f 42 44 48 46
f 45 46 50 49
f 47 51 52 48
f 45 49 51 47
f 46 48 52 50
f 49 50 54 53
f 51 55 56 52
f 49 53 55 51
f 50 52 56 54
f 53 54 58 57
f 55 59 60 56
f 53 57 59 55
f 54 56 60 58
f 57 58 62 61
f 59 63 64 60
f 57 61 63 59
f 58 60 64 62
f 61 62 66 65
f 63 67 68 64
f 61 65 67 63
f 62 64 68 66
f 65 66 70 69
f 67 71 72 68
f 65 69 71 67
f 66 68 72 70
f 69 70 74 73
f 71 75 76 72
f 69 73 75 71
f 70 72 76 74
f 73 74 78 77
f 75 79 80 76
f 73 77 79 75
f 74 76 80 78
f 77 78 82 81
f 79 83 84 80
f 77 81 83 79
f 78 80 84 82
f 81 82 86 85
f 83 87 88 84
f 81 85 87 83
f 82 84 88 86
f 85 86 90 89
f 87 91 92 88
f 85 89 91 87
f 86 88 92 90
f 89 90 94 93
f 91 95 96 92
f 89 93 95 91
f 90 92 96 94
f 93 94 98 97
f 95 99 100 96
f 93 97 99 95
f 94 96 100 98
f 97 98 102 101
f 99 103 104 100
f 97 101 103 99
f 98 100 104 102
f 101 102 106 105
f 103 107 108 104
f 101 105 107 103
f 102 104 108 106
f 105 106 110 109
f 107 111 112 108
f 105 109 111 107
f 106 108 112 110
f 109 110 114 113
f 111 115 116 112
f 109 113 115 111
f 110 112 116 114
f 113 114 118 117
f 115 119 120 116
f 113 117 119 115
f 114 116 120 118
f 117 118 122 121
f 119 123 124 120
f 117 121 123 119
f 118 120 124 122
f 121 122 126 125
f 123 127 128 124
f 121 125 127 123
f 122 124 128 126
f 125 126 130 129
f 127 131 132 128
f 125 129 131 127
f 126 128 132 130
f 129 130 134 133
f 131 135 136 132
f 129 133 135 131
f 130 132 136 134
f 133 134 138 137
f 135 139 140 136
f 133 137 139 135
f 134 136 140 138
f 137 138 142 141
f 139 143 144 140
f 137 141 143 139
f 138 140 144 142
f 141 142 146 145
f 143 147 148 144
f 141 145 147 143
f 142 144 148 146
f 145 146 150 149
f 147 151 152 148
f 145 149 151 147
f 146 148 152 150
f 149 150 154 153
f 151 155 156 152
f 149 153 155 151
f 150 152 156 154
f 153 154 158 157
f 155 159 160 156
f 153 157 159 155
f 154 156 160 158
f 157 158 162 161
f 159 163 164 160
f 157 161 163 159
f 158 160 164 162
f 161 162 166 165
f 163 167 168 164
f 161 165 167 163
f 162 164 168 166
f 165 166 170 169
f 167 171 172 168
f 165 169 171 167
f 166 168 172 170
f 169 170 174 173
f 171 175 176 172
f 169 173 175 171
f 170 172 176 174
f 173 174 178 177
f 175 179 180 176
f 173 177 179 175
f 174 176 180 178
f 177 178 182 181
f 179 183 184 180
f 177 181 183 179
f 178 180 184 182
f 181 182 186 185
f 183 187 188 184
f 181 185 187 183
f 182 184 188 186
f 185 186 190 189
f 187 191 192 188
f 185 189 191 187
f 186 188 192 190
f 189 190 2 1
f 191 3 4 192
f 189 1 3 191
f 190 192 4 2
